# xmcd
#
# Track frame offsets:
#	150
#	12457
#	30429
#	49908
#	67171
#	82425
#	99445
#	114568
#	127075
#	144303
#	159451
#	177129
#	190549
#	205764
#	222056
#	236521
#	254746
#	269254
#	284160
#	299603
#
# Disc length: 4219 seconds
# Revision: 0
# Processed by: cddbd v1.5.2PL0 Copyright (c) Steve Scherf et al.
# Submitted via: dBpowerAMP V12.0
#
DISCID=39107914
DTITLE=Various Artist - Country Radio September 2008
DYEAR=2008
DGENRE=Country
TTITLE0=Kenny Chesney - Everybody Wants To Go To Heaven
TTITLE1=Rascal Flatts - Bob That Head
TTITLE2=Carrie Underwood - Just A Dream
TTITLE3=Dierks Bentley and Sarah Buxton - Sweet and Wild
TTITLE4=Tim McGraw - Let It Go
TTITLE5=Trace Adkins - Muddy Water
TTITLE6=Tara Oram - Fly Girl
TTITLE7=Gord Bamford - Postcard From Pasadena
TTITLE8=Montgomery Gentry - Roll With Me
TTITLE9=Hayes Carll - It`s A Shame
TTITLE10=Leann Rimes - What I Cannot Change
TTITLE11=Kristy Lee Cook - 15 Minutes Of Shame
TTITLE12=One Flew South - My Kind Of Beautiful
TTITLE13=Pat Green - Let Me
TTITLE14=Higgins The - Real Thing
TTITLE15=Duane Steele - Bustin Out
TTITLE16=Randy Owen - Like I Never Broke Her Heart
TTITLE17=Alex J Robinson - That`s Who I Am
TTITLE18=Miranda Lambert - More Like Her
TTITLE19=Kid Rock - All Summer Long
EXTD=
EXTT0=
EXTT1=
EXTT2=
EXTT3=
EXTT4=
EXTT5=
EXTT6=
EXTT7=
EXTT8=
EXTT9=
EXTT10=
EXTT11=
EXTT12=
EXTT13=
EXTT14=
EXTT15=
EXTT16=
EXTT17=
EXTT18=
EXTT19=
PLAYORDER=
